<svg
  xmlns="http://www.w3.org/2000/svg"
  viewBox="0 0 64 64"
  width='100%'
  height='auto'
><title>microphone disabled</title><circle
    cx="32"
    cy="32"
    r="32"
    style="fill:#4f5d73"
  /><path
    d="M19.09,47.0311l.5635.5635a1.72634,1.72634,0,0,0,2.4413,0L38.7854,33.7229a11.11829,11.11829,0,0,1-8.5027-8.5205L16.1984,41.6982a1.72634,1.72634,0,0,0,0,2.4413l.7705.7705-2.0294,2.0295a1.49977,1.49977,0,1,0,2.121,2.121Z"
    style="fill:#fff"
  /><path
    d="M35.5535,15.4994l-.002-.0072c-.0622.0651-.115.1356-.175.202-.1258.1392-.2513.2787-.367.4235-.072.0901-.1376.1831-.2057.2752-.1107.1497-.2205.2998-.321.4545-.0606.0933-.1155.1889-.1724.2839-.0974.1628-.1935.3262-.2799.4933-.0466.09-.088.1814-.1313.2725-.0857.1799-.1692.3606-.2424.5446-.0328.0825-.0608.166-.0911.2491-.072.1973-.1411.3955-.1991.5964-.0219.0756-.0388.152-.0586.228-.0549.2103-.1067.4213-.1464.6343-.014.0753-.0224.1512-.0345.2267-.0347.2158-.067.4321-.0862.6494-.007.0784-.007.157-.0119.2354-.0138.2194-.0267.4388-.0248.6585.0003.0267.0036.0532.004.0798a9.16549,9.16549,0,0,0,.6554,3.2489c.0111.0277.0193.0563.0307.084.0924.2242.1994.4437.3105.6616.0247.0484.0451.0985.0707.1466.1171.22.2481.4342.3844.646.0253.0393.0466.0804.0726.1194a9.2494,9.2494,0,0,0,1.8499,2.0371l.0068.005q.34725.28275.7151.5258c.0592.0392.121.0721.1808.1099.1934.122.3882.2414.5883.3476.0779.0414.1583.0753.2371.1143.1897.0937.3797.1866.5741.2664.0827.034.1675.0604.2511.0919.1959.0737.3921.147.5916.2069.0885.0266.1786.0451.2677.0689.198.0529.396.1061.5965.1456.1132.0223.2276.0341.3413.0521.1791.0283.3578.0599.5381.0776.2539.0249.5088.0348.7636.0386.0445.0006.0889.0063.1333.0063L42.1716,31c.2887,0,.5771-.0167.8647-.044.0938-.0089.1869-.0244.2804-.0362.1898-.0239.379-.0507.5673-.0865.1117-.0213.2228-.0472.3339-.0726.1669-.0383.3326-.0803.4976-.128q.1686-.04875.3358-.104c.1617-.0535.3213-.1129.4804-.1758.1045-.0413.209-.0821.3122-.1273.1653-.0725.3274-.1529.489-.2355.0894-.0458.1798-.089.268-.1378.1759-.0974.3473-.2048.5179-.3146.0676-.0436.1369-.0831.2036-.1286.1998-.1362.394-.2837.585-.4374.0313-.0252.0642-.0471.0953-.0727.0138-.0115.0288-.021.0426-.0325l-.0049-.0018A18.80857,18.80857,0,0,1,35.5535,15.4994Z"
    style="fill:#fff"
  /><path
    d="M50.5289,25.5676c.0412-.0921.0825-.1841.1205-.2772.0784-.192.1481-.3862.213-.582.0215-.0648.0459-.1287.0659-.1939a9.18447,9.18447,0,0,0,.3523-1.7388l.0008-.0089A9.09839,9.09839,0,0,0,40.39,12.8466c-.0318.0064-.064.0104-.0957.017-.228.048-.4526.1087-.6771.1741-.1008.0294-.2019.0582-.3019.0911q-.2877.0948-.5694.2085c-.1252.0506-.2487.1057-.3721.162-.1162.053-.2362.0946-.3506.1527l.0031.0147A16.02045,16.02045,0,0,0,50.0468,26.493l.0095.0027c.031-.0523.056-.1072.0859-.1599.0554-.098.1079-.1971.1594-.2966Q50.42265,25.806,50.5289,25.5676Z"
    style="fill:#fff"
  /></svg>
