<svg
  xmlns="http://www.w3.org/2000/svg"
  viewBox="0 0 64 64"
  width='100%'
  height='auto'
><title>microphone enabled</title><circle
    cx="32"
    cy="32"
    r="32"
    style="fill:#f5cf87"
  /><g style="opacity:0.2"><path
      d="M31.2706,26.7145,16.1984,44.1982a1.72634,1.72634,0,0,0,0,2.4413l.7705.7705-2.0294,2.0295a1.49977,1.49977,0,1,0,2.121,2.121L19.09,49.5311l.5635.5635a1.72634,1.72634,0,0,0,2.4413,0L39.7733,35.235a11.11829,11.11829,0,0,1-8.5027-8.5205Z"
      style="fill:#231f20"
    /></g><circle
    cx="42.1642"
    cy="24.8358"
    r="9.1642"
    style="fill:#231f20;opacity:0.2"
  /><circle cx="42.1642" cy="21.8358" r="9.1642" style="fill:#e0995e" /><path
    d="M31.2706,24.2145,16.1984,41.6982a1.72634,1.72634,0,0,0,0,2.4413l.7705.7705-2.0294,2.0295a1.49977,1.49977,0,1,0,2.121,2.121L19.09,47.0311l.5635.5635a1.72634,1.72634,0,0,0,2.4413,0L39.7733,32.735a11.11829,11.11829,0,0,1-8.5027-8.5205Z"
    style="fill:#4f5d73"
  /><path
    d="M48.0453,28.8665A18.81023,18.81023,0,0,1,35.5515,15.4922,9.16494,9.16494,0,0,0,48.0453,28.8665Z"
    style="fill:#4f5d73"
  /><path
    d="M48.6569,15.3431A9.16183,9.16183,0,0,0,38.0232,13.652,16.02329,16.02329,0,0,0,50.0563,26.4957,9.1671,9.1671,0,0,0,48.6569,15.3431Z"
    style="fill:#4f5d73"
  /></svg>
